# xmcd
#
# Track frame offsets:
# 150
# 13875
# 26936
# 44830
# 57853
# 71842
# 85788
# 99854
# 114958
# 128408
# 143146
# 157149
# 169009
# 183347
# 198047
# 210870
# 225817
# 241297
# 259769
# 272173
#
# Disc length: 3788 seconds
#
#
# Revision: 0
# Processed by: cddbd v1.5.1PL0 Copyright (c) Steve Scherf et al.
# Submitted via: FreeRIP 2.942 
#
DISCID=0a0eca14
DTITLE=Gary Stewart - The Essential Gary Stewart
DYEAR=1997
DGENRE=Country
TTITLE0=Drinkin'Thing
TTITLE1=Honky Tonkin'
TTITLE2=Roarin'
TTITLE3=She's Actin' Single
TTITLE4=Blacksliders' Wine
TTITLE5=Out Of Hand
TTITLE6=Single Again
TTITLE7=Quits
TTITLE8=Oh' Sweet Temptation
TTITLE9=In Some Room Above The Street
TTITLE10=Your Place Or Mine
TTITLE11=Ten Years Of This
TTITLE12=Whiskey Trip
TTITLE13=Stone Wall (Around Your Heart)
TTITLE14=Flat Natural Born Good-Timin' Man
TTITLE15=Mazelle
TTITLE16=Cactus And A Rose
TTITLE17=Are We Dreamin' The Same Dream
TTITLE18=I See The Want To In Your Eyes
TTITLE19=Brotherly Love
EXTD=
EXTT0=
EXTT1=
EXTT2=
EXTT3=
EXTT4=
EXTT5=
EXTT6=
EXTT7=
EXTT8=
EXTT9=
EXTT10=
EXTT11=
EXTT12=
EXTT13=
EXTT14=
EXTT15=
EXTT16=
EXTT17=
EXTT18=
EXTT19=
PLAYORDER=
